<svg xmlns="http://www.w3.org/2000/svg" viewBox="0 0 28 20" fill="none">
  <path d="M2.5 5.2C2.5 3.99 3.48 3 4.7 3C5.91 3 6.9 3.99 6.9 5.2V14.8C6.9 16.01 5.91 17 4.7 17C3.48 17 2.5 16.01 2.5 14.8V5.2Z" fill="#F4F7FF"/>
  <path d="M8.9 5.2C8.9 3.99 9.88 3 11.1 3C12.31 3 13.3 3.99 13.3 5.2V14.8C13.3 16.01 12.31 17 11.1 17C9.88 17 8.9 16.01 8.9 14.8V5.2Z" fill="#F4F7FF"/>
  <path d="M14.9 5.2C14.9 3.99 15.88 3 17.1 3C18.31 3 19.3 3.99 19.3 5.2V14.8C19.3 16.01 18.31 17 17.1 17C15.88 17 14.9 16.01 14.9 14.8V5.2Z" fill="#F4F7FF"/>
  <path d="M21.1 5.2C21.1 3.99 22.08 3 23.3 3C24.51 3 25.5 3.99 25.5 5.2V14.8C25.5 16.01 24.51 17 23.3 17C22.08 17 21.1 16.01 21.1 14.8V5.2Z" fill="#F4F7FF"/>
</svg>
